<?xml version="1.0" encoding="UTF-8" standalone="no"?>
<!-- Created with Inkscape (http://www.inkscape.org/) -->

<svg
   width="213.15604mm"
   height="89.729912mm"
   viewBox="0 0 213.15604 89.729912"
   version="1.1"
   id="svg1"
   xml:space="preserve"
   inkscape:version="1.4.2 (f4327f4, 2025-05-13)"
   sodipodi:docname="logo.svg"
   xmlns:inkscape="http://www.inkscape.org/namespaces/inkscape"
   xmlns:sodipodi="http://sodipodi.sourceforge.net/DTD/sodipodi-0.dtd"
   xmlns="http://www.w3.org/2000/svg"
   xmlns:svg="http://www.w3.org/2000/svg"><sodipodi:namedview
     id="namedview1"
     pagecolor="#ffffff"
     bordercolor="#000000"
     borderopacity="0.25"
     inkscape:showpageshadow="2"
     inkscape:pageopacity="0.0"
     inkscape:pagecheckerboard="0"
     inkscape:deskcolor="#d1d1d1"
     inkscape:document-units="mm"
     inkscape:zoom="1.0806047"
     inkscape:cx="407.17942"
     inkscape:cy="-134.64683"
     inkscape:window-width="2560"
     inkscape:window-height="1494"
     inkscape:window-x="-11"
     inkscape:window-y="-11"
     inkscape:window-maximized="1"
     inkscape:current-layer="layer1" /><defs
     id="defs1" /><g
     inkscape:label="Layer 1"
     inkscape:groupmode="layer"
     id="layer1"
     transform="translate(2.6678588,-184.4252)"><path
       d="m 20.020425,273.98287 c -2.174779,-0.36997 -8.027229,-1.85776 -8.361452,-2.12562 -0.160414,-0.12856 -1.053383,-0.30667 -1.9843757,-0.39581 -1.189215,-0.11386 -2.007515,-0.36964 -2.751047,-0.85992 -0.582083,-0.38382 -1.475052,-0.78117 -1.984375,-0.88298 -2.6984098,-0.53944 -2.9044082,-0.64052 -4.74510705,-2.32823 -1.031512,-0.94577 -1.82022265,-1.86358 -1.75269035,-2.03957 0.067532,-0.17598 -0.1820626,-0.86541 -0.5546555,-1.53205 -0.5094398,-0.91148 -0.6356096,-1.42272 -0.5087604,-2.06147 0.092775,-0.46717 0.1679182,-1.14705 0.1669857,-1.51085 -0.00272,-1.06246 1.3409059,-3.29473 2.66293305,-4.42412 1.32327525,-1.13046 3.50617965,-1.93391 3.97648155,-1.46361 0.151011,0.15101 0.714983,0.21549 1.253271,0.14329 0.697498,-0.0935 1.079887,-0.009 1.330854,0.29304 0.193682,0.23337 0.563542,0.42431 0.821911,0.42431 0.25837,0 0.987932,0.29623 1.621249,0.65828 0.633318,0.36205 1.3479397,0.6597 1.5880487,0.66145 0.24011,0.002 0.853281,0.41991 1.362604,0.92923 0.832213,0.83222 1.072428,0.92604 2.370787,0.92604 1.052552,0 1.691485,0.16161 2.353676,0.59532 0.499913,0.32742 1.320199,0.82074 1.82286,1.09626 1.823116,0.9993 2.708578,1.84758 3.317929,3.17857 0.377308,0.82415 0.933219,1.53974 1.419169,1.82679 1.122911,0.66332 2.372906,2.59155 2.553273,3.93866 0.123896,0.92534 0.0119,1.40543 -0.598471,2.56554 -1.240087,2.35696 -2.437488,2.88822 -5.381098,2.38745 z m 145.256255,-4.21103 c -0.80037,-0.10711 -1.98019,-0.33932 -2.62182,-0.51602 -0.64163,-0.17671 -1.54442,-0.25041 -2.00619,-0.16378 -0.63358,0.11886 -0.95457,0.0304 -1.30822,-0.36034 -0.25776,-0.28481 -0.84325,-0.59682 -1.3011,-0.69336 -0.45786,-0.0965 -1.42778,-0.56265 -2.15538,-1.0358 -0.72761,-0.47315 -1.8587,-1.19219 -2.51354,-1.59787 -3.13187,-1.94021 -5.01491,-4.0422 -7.58379,-8.46559 -0.25353,-0.43657 -0.64519,-1.11032 -0.87036,-1.49724 -2.22286,-3.81969 -3.42315,-7.15774 -5.78831,-16.09756 -1.91782,-7.24894 -1.77359,-6.5244 -2.43389,-12.22736 -0.48427,-4.18262 -1.03721,-7.03139 -1.87633,-9.66691 -0.24565,-0.77155 -0.37723,-0.85989 -1.28075,-0.85989 -0.82661,0 -1.03191,-0.10663 -1.14624,-0.59532 -1.36185,-5.8212 -1.57932,-9.04008 -0.70738,-10.47026 l 0.53598,-0.87911 2.3073,0.14352 c 1.26902,0.0789 2.78356,0.19396 3.36564,0.25561 4.16858,0.44147 4.8117,0.56716 5.80298,1.1341 0.5919,0.33852 1.27101,0.61693 1.50914,0.61869 0.64645,0.005 3.13892,2.45431 3.13892,3.08487 0,0.29765 0.1905,0.92303 0.42332,1.38974 0.29506,0.59147 0.37209,1.18494 0.25423,1.95888 -0.093,0.61067 -0.25695,2.00329 -0.36434,3.09469 -0.10739,1.09141 -0.38685,2.34157 -0.62102,2.77813 -1.13014,2.10692 -2.86719,9.84195 -2.86719,12.76755 0,1.10716 1.4083,6.90844 1.90019,7.82755 0.15445,0.28858 0.43607,1.26675 0.62583,2.17372 0.43599,2.0838 1.03057,3.24375 2.99557,5.844 2.78326,3.68304 8.99242,9.0903 10.43839,9.0903 0.33909,0 1.46848,0.29766 2.50976,0.66146 1.04128,0.36381 2.34196,0.6622 2.8904,0.66309 0.54843,9e-4 1.34062,0.18075 1.76041,0.39968 0.56289,0.29356 0.85524,0.32172 1.11365,0.10726 0.19777,-0.16414 0.68984,-0.21623 1.12978,-0.11961 0.47171,0.10361 0.85228,0.0532 0.96403,-0.12755 0.11893,-0.19244 0.56015,-0.2353 1.23995,-0.12045 0.86251,0.14572 1.35303,0.0333 2.68483,-0.61531 0.89623,-0.43649 2.66557,-1.29193 3.93188,-1.90099 1.71875,-0.82667 2.73988,-1.54488 4.02833,-2.83334 2.39728,-2.39728 3.20942,-3.72558 3.74169,-6.11979 0.24858,-1.11814 0.63138,-2.68783 0.85067,-3.4882 0.21929,-0.80036 0.42353,-2.52677 0.45387,-3.83645 0.0303,-1.30969 0.1954,-3.11732 0.36678,-4.01695 0.25359,-1.33119 0.23616,-2.14028 -0.0937,-4.34608 -0.42486,-2.84144 -0.50623,-4.2801 -0.25623,-4.5301 0.082,-0.082 0.46892,-0.0636 0.85989,0.0408 0.61846,0.16519 0.75075,0.3938 1.01763,1.75858 0.16871,0.86279 0.63626,3.22429 1.039,5.24779 0.66764,3.35452 0.70477,3.83928 0.42084,5.49502 -0.17126,0.99876 -0.31139,2.35689 -0.31139,3.01807 0,0.66118 -0.19313,1.7926 -0.42917,2.51426 -0.2758,0.84321 -0.38579,1.83524 -0.30778,2.77594 0.0961,1.15878 -0.003,1.70867 -0.47346,2.63879 -0.32716,0.64623 -0.90568,2.51505 -1.28559,4.15294 -1.27154,5.48187 -0.98764,4.93424 -4.35237,8.39543 -2.17119,2.23343 -3.43925,3.3221 -4.31932,3.70826 -0.6852,0.30066 -1.3173,0.66232 -1.40468,0.8037 -0.0874,0.14138 -0.42874,0.25705 -0.75859,0.25705 -0.32984,0 -0.87935,0.29765 -1.22113,0.66146 -0.35786,0.38093 -0.91703,0.66146 -1.31846,0.66146 -0.38339,0 -0.92784,0.16874 -1.2099,0.37499 -0.35031,0.25615 -0.61401,0.29104 -0.83205,0.11009 -0.21971,-0.18235 -0.56963,-0.11699 -1.12263,0.20968 -0.62851,0.37127 -0.87312,0.4049 -1.12353,0.1545 -0.42902,-0.42903 -1.28911,-0.39083 -1.91848,0.0852 -0.54196,0.40993 -1.71724,0.44543 -4.11661,0.12435 z m -126.442625,-1.8818 c -2.335109,-0.39584 -6.95846,-1.81788 -8.1448,-2.50515 -0.60782,-0.35213 -1.322195,-0.91184 -1.5875,-1.2438 -0.265304,-0.33197 -0.928856,-0.9415 -1.474559,-1.35451 -0.883222,-0.66846 -0.992187,-0.87918 -0.992187,-1.91865 0,-2.28505 1.213484,-3.83785 2.998268,-3.83664 3.339894,0.002 5.30217,0.29943 6.288797,0.95235 0.583587,0.3862 1.399414,0.67523 1.905933,0.67523 1.005824,0 2.036169,0.8935 2.036169,1.76574 0,0.63882 1.421872,3.41405 2.164167,4.22406 0.807068,0.8807 0.873587,2.00108 0.158443,2.66866 -0.782444,0.73041 -1.599304,0.86994 -3.352731,0.57271 z m 35.161371,-0.31982 c -3.601197,-1.4875 -6.390962,-3.49563 -7.300959,-5.25537 -0.368749,-0.71308 -0.365968,-0.84759 0.03001,-1.45193 0.695971,-1.06219 2.499098,-1.72571 4.156408,-1.52948 1.800102,0.21313 2.879839,0.53684 4.83433,1.44934 0.873125,0.40764 1.927396,0.8163 2.342825,0.90812 0.574805,0.12706 0.724234,0.28586 0.625235,0.66443 -0.09435,0.36078 0.07737,0.5834 0.624965,0.81022 0.41528,0.17201 0.891006,0.47656 1.057168,0.67677 0.239606,0.28871 0.154043,0.42032 -0.413552,0.63612 l -0.715666,0.2721 0.597233,0.48361 0.597232,0.48361 -1.498308,0.99452 c -0.82407,0.54699 -1.564649,1.10186 -1.645731,1.23305 -0.259055,0.41916 -1.790996,0.24456 -3.291193,-0.37511 z m -22.279244,-1.71806 c -3.030403,-1.80976 -3.54155,-2.24042 -4.207244,-3.54473 -0.691823,-1.35551 -0.634728,-2.22699 0.196363,-2.99722 0.912542,-0.84571 2.188669,-1.17974 4.462,-1.16794 2.134212,0.0111 2.903917,0.34677 4.778169,2.08389 1.789635,1.6587 1.970262,2.74499 0.828879,4.98485 -0.708568,1.3905 -0.99365,1.69912 -1.77059,1.91676 -1.422306,0.39841 -1.546202,0.36155 -4.287577,-1.27561 z m 74.145968,-4.40217 c -4.06626,-2.74358 -4.75587,-3.40776 -5.5582,-5.35325 -0.34907,-0.8464 -0.94634,-2.07469 -1.32729,-2.72954 -0.77686,-1.33542 -2.0224,-7.01602 -1.75456,-8.00209 0.15896,-0.58522 -0.27306,-2.86688 -1.0899,-5.75624 -0.22627,-0.80037 -0.46864,-2.31509 -0.53861,-3.36605 l -0.12722,-1.91084 0.82403,-0.47041 c 0.45321,-0.25873 0.9348,-0.7866 1.07019,-1.17306 0.3209,-0.91598 1.0058,-1.10748 2.78474,-0.77863 1.69006,0.31243 2.63485,0.77423 5.70264,2.78738 1.23375,0.80962 2.39155,1.47202 2.5729,1.47202 0.18134,0 0.52637,0.38696 0.76672,0.8599 0.24036,0.47294 1.07554,1.77692 1.85595,2.89774 1.44544,2.0759 1.75142,2.73076 2.69469,5.76736 0.92146,2.96638 0.98233,3.65595 0.38078,4.31428 -1.39922,1.53132 -1.67577,3.34451 -1.09742,7.1951 0.23294,1.55092 0.19982,2.19054 -0.20368,3.9335 -0.53011,2.28984 -0.80805,2.55346 -2.6819,2.54373 -0.78047,-0.004 -1.63304,-0.44909 -4.27386,-2.2309 z m 84.45508,-5.43696 c 0,-0.50932 0.0545,-0.71768 0.121,-0.46302 0.0666,0.25467 0.0666,0.67138 0,0.92605 -0.0666,0.25466 -0.121,0.0463 -0.121,-0.46303 z M 31.11001,249.53668 c -0.61071,-0.65158 -1.34607,-1.2595 -1.634134,-1.35093 -0.560444,-0.17788 -4.689761,-3.28753 -5.132354,-3.86501 -0.324202,-0.423 -1.991799,-5.48092 -2.64392,-8.01916 -0.921631,-3.58725 -0.42772,-10.09909 0.974467,-12.8476 0.615386,-1.20626 1.954547,-2.36595 2.732101,-2.36595 0.320454,0 1.412647,0.35397 2.427096,0.7866 2.762208,1.17798 3.564243,1.01368 3.564243,-0.73013 0,-1.33595 2.231494,-4.4306 5.675831,-7.87128 2.552808,-2.55009 8.800932,-9.32412 9.531764,-10.33405 0.16846,-0.23279 0.16846,-0.44375 0,-0.60506 -0.5849,-0.56005 -10.211452,3.44957 -11.378789,4.73946 -0.25918,0.28639 -0.686686,0.52071 -0.950012,0.52071 -1.326461,0 -8.340171,5.07756 -11.906357,8.61958 -2.167112,2.15243 -2.32563,2.2568 -3.183151,2.09593 -0.496354,-0.0931 -1.494107,-0.48852 -2.217229,-0.87868 -1.107923,-0.59777 -1.335578,-0.8525 -1.447057,-1.61914 -0.112904,-0.77644 -0.268006,-0.94468 -1.058334,-1.14799 -1.255155,-0.3229 -1.502851,-0.56901 -2.298528,-2.2838 -0.377346,-0.81323 -1.252747,-2.14007 -1.945335,-2.94852 -1.1358227,-1.32584 -1.2772987,-1.63844 -1.4433697,-3.18919 -0.232339,-2.16955 0.177542,-3.23367 1.9204137,-4.98573 0.918426,-0.92327 1.663708,-1.39747 2.662529,-1.69409 0.762898,-0.22656 1.948536,-0.70576 2.634751,-1.0649 0.686216,-0.35914 1.723914,-0.79579 2.305998,-0.97034 0.582083,-0.17456 1.474783,-0.63006 1.983777,-1.01223 0.508995,-0.38217 1.937745,-1.27641 3.175,-1.9872 1.237256,-0.71078 3.082994,-1.91567 4.101639,-2.67753 1.018646,-0.76185 2.239037,-1.58234 2.71198,-1.82331 0.472942,-0.24096 0.859895,-0.59996 0.859895,-0.79777 0,-0.1978 0.267891,-0.53821 0.595313,-0.75644 0.327422,-0.21824 0.881421,-0.64865 1.231109,-0.95647 0.349688,-0.30783 0.7294,-0.55968 0.843804,-0.55968 0.114404,0 0.753845,-0.47242 1.420979,-1.04982 1.773171,-1.53467 2.90478,-1.76718 5.830671,-1.19801 1.757411,0.34186 2.637118,0.66232 3.357922,1.22323 0.53717,0.41801 1.101799,0.76002 1.25473,0.76002 0.152932,0 0.606398,0.36915 1.007702,0.82035 0.401305,0.45119 1.068647,0.99601 1.482983,1.21072 0.670058,0.34722 1.076395,0.74331 2.884684,2.81189 0.254661,0.29132 0.466907,0.71981 0.471658,0.95221 0.0048,0.23239 0.23342,1.07738 0.508154,1.87774 0.627231,1.82728 1.463566,2.50837 2.970906,2.41943 1.076735,-0.0635 1.179852,0.008 3.861327,2.66025 3.081266,3.04826 4.490323,4.80504 5.326915,6.64147 0.967131,2.12298 0.974168,2.63445 0.05071,3.6862 -1.120118,1.27574 -2.208652,1.70434 -3.313721,1.30475 -0.46835,-0.16936 -1.163487,-0.30793 -1.544749,-0.30793 -0.381263,0 -0.76799,-0.121 -0.859394,-0.2689 -0.0914,-0.14789 -0.28226,-0.19716 -0.424125,-0.10948 -0.141865,0.0877 -0.558033,-0.0372 -0.924817,-0.27754 -0.845665,-0.55411 -1.75934,-0.36574 -3.448503,0.71095 -1.57922,1.00661 -3.912317,2.06164 -4.559133,2.06164 -0.264338,0 -0.693869,0.23564 -0.954512,0.52365 -0.598995,0.66188 -0.448281,0.71549 2.508549,0.89228 1.236927,0.074 2.939446,0.32143 3.783375,0.54993 1.367431,0.37026 1.617709,0.3724 2.29979,0.0197 0.630713,-0.32615 0.996572,-0.34242 2.079423,-0.0925 1.094156,0.25256 1.694651,0.66192 3.588482,2.44627 1.765063,1.66303 2.274143,2.30252 2.27314,2.85543 -0.0018,0.96916 -0.870059,2.36874 -1.816361,2.92774 -0.763751,0.45116 -0.782955,0.51658 -0.931286,3.17272 -0.0833,1.49163 -0.283707,6.76019 -0.445349,11.7079 -0.263259,8.05809 -0.353306,9.16821 -0.863834,10.64948 -0.55637,1.61427 -0.592484,1.65364 -1.516868,1.65364 -1.195577,0 -2.765223,-1.28372 -3.96612,-3.24366 -0.467261,-0.7626 -0.923261,-1.44608 -1.013333,-1.51884 -0.177508,-0.14339 -0.927453,-1.19295 -2.205183,-3.08619 -0.645327,-0.95619 -0.737439,-1.24775 -0.45027,-1.42523 0.294275,-0.18188 0.20254,-0.70267 -0.496163,-2.81679 -0.471453,-1.42652 -0.949203,-3.06991 -1.061667,-3.652 -0.181533,-0.93957 -0.297438,-1.06746 -1.032874,-1.13966 -0.92917,-0.0912 -3.094874,0.8945 -3.884063,1.76784 -0.442648,0.48984 -0.478712,0.8128 -0.315453,2.82489 0.205133,2.52814 0.334075,3.02922 0.779506,3.02922 0.328387,0 2.792916,1.24195 3.183919,1.60447 0.138116,0.12805 0.04571,0.51356 -0.220467,0.9198 -0.384076,0.58618 -0.406975,0.82311 -0.141492,1.46404 0.436909,1.0548 0.187183,1.51132 -1.150369,2.10298 -2.338839,1.03458 -6.61826,0.89968 -8.933805,-0.28163 l -1.036428,-0.52874 v 1.3376 c 0,0.80469 -0.176298,1.60667 -0.442505,2.01295 -0.39402,0.60135 -0.563496,0.65721 -1.546724,0.50976 -0.823445,-0.12348 -1.1901,-0.0621 -1.441974,0.24139 -0.607842,0.7324 -1.506386,0.47137 -2.677129,-0.77772 z m 6.141393,-7.97957 c 0.854942,-0.38367 1.554419,-0.77063 1.554394,-0.8599 -2.5e-5,-0.0893 -0.183172,-1.1148 -0.406993,-2.27897 -0.223821,-1.16416 -0.339088,-2.39056 -0.256149,-2.72532 0.135141,-0.54545 -0.06298,-0.70632 -1.908111,-1.54932 -1.132401,-0.51737 -2.503209,-1.36683 -3.046241,-1.8877 -0.543032,-0.52086 -1.056145,-0.87821 -1.140252,-0.7941 -0.161312,0.16131 1.006357,6.03807 1.513622,7.6179 0.647483,2.01653 1.266291,3.175 1.695952,3.175 0.241637,0 1.138837,-0.31391 1.993778,-0.69759 z m 16.998546,-5.18939 c 0.08758,-0.76398 0.289196,-3.38108 0.448025,-5.81576 0.158828,-2.43469 0.375067,-5.58985 0.480531,-7.01146 0.105464,-1.42162 0.145171,-2.8351 0.08824,-3.14108 -0.187704,-1.00878 -4.783226,-2.4747 -7.782332,-2.48248 -1.392725,-0.004 -1.558049,0.0619 -2.164658,0.85716 -1.061677,1.39193 -1.237388,2.15708 -1.051302,4.578 l 0.171308,2.22865 1.941764,1.0657 c 1.067971,0.58614 2.351968,1.42587 2.853328,1.86606 0.897217,0.78777 0.905587,0.81467 0.531818,1.70923 -0.340882,0.81584 -0.32968,1.04062 0.109452,2.19632 0.728014,1.91598 3.300098,5.33872 4.01188,5.33872 0.111486,0 0.274363,-0.62507 0.361948,-1.38906 z m -19.386667,-10.2571 c 1.637164,-0.28089 3.073174,-0.66268 3.191134,-0.84842 0.618553,-0.97397 0.439764,-3.11583 -0.260089,-3.11583 -0.10953,0 -0.992315,0.7739 -1.961744,1.71979 -0.969428,0.94588 -1.91742,1.71718 -2.106648,1.71398 -0.189228,-0.003 -0.870695,-0.24474 -1.514372,-0.53675 -1.294221,-0.58716 -1.596283,-0.43098 -1.603753,0.82919 -0.005,0.84299 0.216551,1.08591 0.816679,0.89543 0.254173,-0.0807 1.80163,-0.37649 3.438793,-0.65739 z m 139.144648,8.35073 c -1.75113,-0.89122 -3.07231,-1.46847 -3.35944,-1.4678 -0.1742,4e-4 -0.87654,-0.29692 -1.56076,-0.66072 -0.68422,-0.36381 -1.38907,-0.66146 -1.56634,-0.66146 -0.17727,0 -0.64001,-0.48007 -1.0283,-1.06682 -0.44738,-0.67604 -0.96909,-1.11967 -1.42422,-1.21107 -0.96431,-0.19367 -1.39111,-0.54762 -2.35792,-1.95545 -0.4497,-0.65484 -1.12795,-1.47927 -1.50721,-1.83205 -0.37926,-0.35279 -0.68956,-0.83568 -0.68956,-1.07308 0,-0.2374 -0.29766,-0.83509 -0.66146,-1.3282 -0.3638,-0.49311 -0.66146,-1.22259 -0.66146,-1.62107 0,-0.46893 -0.1703,-0.77857 -0.48275,-0.87774 -0.71647,-0.2274 -1.77958,-2.41909 -2.83064,-5.83556 -0.40292,-1.30969 -0.84649,-2.67891 -0.98572,-3.04271 -0.56001,-1.46333 -0.69678,-3.72115 -0.33124,-5.46826 0.19888,-0.95055 0.43929,-1.80569 0.53424,-1.90032 0.095,-0.0946 0.86115,-0.16814 1.70265,-0.16336 2.02191,0.0115 5.12265,1.50347 6.86255,3.30208 0.6707,0.69332 1.48914,1.34196 1.81877,1.44141 0.34338,0.1036 1.51086,1.41554 2.73387,3.07213 1.174,1.59022 2.29056,2.89132 2.48123,2.89132 0.19067,0 0.41521,0.17859 0.49897,0.39687 0.0838,0.21828 0.42392,0.40066 0.75591,0.40529 0.33199,0.005 0.79627,0.1551 1.03173,0.33437 0.98557,0.7504 2.86535,3.22641 3.03019,3.99131 0.0978,0.4539 0.71191,2.404 1.36465,4.33354 l 1.18678,3.50825 -0.58673,2.18029 c -1.15309,4.28484 -2.06631,5.27654 -3.96779,4.30881 z m 21.69583,-17.79937 c 0,-0.28546 -0.20836,-0.69588 -0.46302,-0.91206 -0.66617,-0.56549 -2.91175,-1.34776 -3.25676,-1.13453 -0.161,0.0995 -0.8055,-0.18732 -1.43221,-0.63739 -0.62671,-0.45007 -1.45094,-0.93673 -1.83162,-1.08146 -0.81303,-0.30911 -3.20181,-3.81682 -3.47754,-5.10645 -0.10081,-0.47149 -0.29361,-0.99456 -0.42844,-1.16236 -0.42926,-0.53422 0.92357,-1.64423 2.71728,-2.22955 1.47824,-0.48237 2.83661,-0.62757 4.20356,-0.44932 0.21828,0.0285 0.94894,-0.0441 1.62369,-0.16133 1.78346,-0.30978 4.8245,0.39442 7.37576,1.70798 1.83965,0.94717 2.17223,1.23021 2.61093,2.22196 0.48753,1.10213 0.48855,1.19609 0.0337,3.10513 -0.59401,2.49324 -1.13672,3.53971 -2.09186,4.03364 -0.41665,0.21546 -1.09925,0.67871 -1.51688,1.02944 -0.41762,0.35073 -1.23557,0.69873 -1.81765,0.77332 -0.58208,0.0746 -1.32623,0.22256 -1.65365,0.32882 -0.4807,0.15599 -0.59531,0.0933 -0.59531,-0.32584 z"
       id="path1"
       fill="currentColor" /></g></svg>
